<svg xmlns="http://www.w3.org/2000/svg" viewBox="0 0 1056 495"><path d="M707.6,149.5L715.7,148.5L720.9,143.9L727.0,145.4L731.9,144.1L735.7,141.7L737.6,145.6L742.9,144.4L746.8,145.7L737.0,148.3L736.7,153.0L732.4,156.5L729.1,160.3L722.7,163.0L716.2,166.8L709.2,163.0L705.6,156.8L707.6,149.5L707.6,149.5ZM575.9,263.7L579.3,269.7L584.2,268.8L588.4,266.6L592.4,270.3L593.0,278.0L598.1,277.5L598.2,282.1L594.2,294.0L581.6,295.1L565.6,294.1L562.6,290.9L565.4,283.6L568.1,277.0L565.9,272.1L563.9,264.8L567.2,263.6L575.9,263.7ZM564.5,263.1L565.0,259.7L564.5,263.1L564.5,263.1ZM588.4,132.4L589.6,135.9L586.6,138.3L584.9,133.6L585.9,130.1L588.2,131.4L588.4,132.4ZM679.3,180.8L684.7,181.1L692.5,175.8L691.7,180.8L690.0,183.9L679.4,181.5L679.3,180.8ZM335.9,399.3L326.7,398.4L333.1,397.2L335.9,399.3ZM337.4,308.2L344.1,308.7L358.5,316.7L362.3,323.3L369.2,317.8L366.2,324.2L357.4,335.6L356.4,342.2L361.4,349.0L345.1,354.3L343.9,360.3L337.4,363.2L339.2,365.4L332.9,371.4L335.5,377.4L326.4,385.7L326.9,391.3L315.9,386.9L314.9,381.9L318.1,372.8L317.4,369.1L317.5,363.1L320.3,353.5L321.5,344.2L321.1,333.8L325.6,323.2L327.3,314.9L333.6,307.5L337.4,308.2ZM655.8,134.5L661.1,136.0L664.4,139.0L662.2,138.9L658.2,137.5L655.8,134.5ZM353.3,467.6L338.8,470.0L340.2,468.3L353.3,467.6L353.3,467.6ZM61.0,466.1L49.7,464.4L55.0,463.0L61.0,466.1ZM395.5,462.1L400.9,467.6L379.9,470.3L375.9,467.4L383.4,463.3L391.1,461.5L395.5,462.1ZM172.4,449.6L175.3,451.2L168.9,449.1L172.4,449.6ZM159.7,449.6L154.6,449.5L159.7,449.6ZM237.7,445.3L243.5,446.7L229.4,446.3L233.4,445.1L237.7,445.3ZM327.2,442.6L322.8,446.3L313.7,446.1L311.2,443.5L317.4,441.9L321.9,436.9L326.4,441.4L327.2,442.6ZM356.1,423.9L348.2,425.0L344.4,428.6L339.4,431.3L336.4,435.5L343.8,439.0L347.6,443.0L350.0,448.7L342.3,452.6L330.9,455.9L316.2,458.4L302.3,459.5L308.7,462.6L299.1,465.3L313.1,468.6L335.3,471.6L355.8,475.3L370.7,473.7L396.5,472.6L415.8,471.2L439.7,469.1L440.9,465.5L422.7,465.0L433.5,461.0L447.3,457.9L462.1,456.8L476.6,454.1L479.7,450.6L489.0,447.5L497.8,443.5L506.4,443.6L515.3,444.0L527.3,444.5L540.1,442.3L550.7,439.7L559.7,442.3L571.2,440.1L581.4,439.7L592.3,441.1L604.2,441.3L616.1,439.8L625.7,436.8L634.1,437.9L644.4,438.7L654.0,435.8L664.4,433.4L674.5,432.1L682.3,429.1L693.3,428.9L700.3,432.5L711.0,434.5L721.5,433.8L732.5,437.2L726.9,440.8L728.7,444.0L736.3,445.7L742.4,442.0L749.8,439.3L758.1,436.4L767.0,433.2L776.4,432.3L786.1,429.6L793.8,432.4L804.2,432.1L814.8,432.4L824.0,430.6L833.8,428.9L845.0,431.6L855.8,429.4L865.0,430.1L875.8,432.2L886.8,430.5L897.9,430.5L908.5,430.6L920.6,429.8L926.0,427.9L931.2,431.6L944.9,431.2L956.8,432.4L964.6,435.6L978.7,437.0L988.0,438.3L999.7,440.6L1011.8,442.1L1025.1,443.3L1028.3,446.7L1020.7,450.5L1011.9,454.1L1007.5,458.4L1011.2,462.5L1008.1,465.1L998.3,469.1L1004.6,473.2L1023.4,476.7L1036.1,479.6L0.2,480.5L11.5,478.8L20.2,478.8L33.6,479.2L64.3,482.3L100.1,482.1L87.8,479.3L79.1,475.3L72.5,471.4L86.1,471.2L97.5,467.3L78.1,465.2L64.4,462.1L72.4,459.8L88.0,459.8L99.3,456.8L104.7,455.2L120.7,453.7L133.7,452.0L148.0,452.3L164.2,452.3L179.9,451.5L193.8,450.2L201.6,452.2L216.6,454.1L232.8,454.6L227.2,451.3L226.1,447.6L240.2,448.8L253.2,449.0L266.3,447.0L278.1,449.6L291.3,449.6L302.4,450.0L314.4,449.4L328.7,447.7L329.8,443.4L326.9,439.2L330.2,434.9L332.3,430.6L339.7,426.7L347.8,424.2L356.1,421.8L356.1,423.9L356.1,423.9ZM730.2,381.2L734.2,384.2L730.2,381.2L730.2,381.2ZM954.5,359.7L963.0,359.9L960.9,365.6L954.6,364.9L954.5,359.7L954.5,359.7ZM949.1,285.4L954.4,288.7L955.9,294.0L960.6,301.1L965.9,306.0L970.1,309.1L976.4,317.0L978.5,324.8L977.1,332.5L971.9,340.5L968.2,347.7L963.0,351.5L954.8,353.6L949.3,354.2L940.5,352.1L936.0,345.8L932.0,344.0L932.5,340.0L926.9,343.4L921.3,337.8L913.2,334.1L898.0,336.1L890.7,340.7L881.7,340.8L875.6,343.1L867.0,342.1L867.4,339.0L865.8,331.7L864.2,325.9L860.5,319.3L863.1,319.8L860.6,314.6L861.6,309.3L866.7,306.6L872.5,304.6L877.8,302.4L884.9,298.9L888.8,292.6L891.2,291.8L895.2,287.9L898.0,286.3L904.5,288.4L909.0,285.0L912.9,281.0L914.7,278.5L922.2,280.6L927.7,280.6L927.8,284.1L925.3,288.0L931.6,292.1L936.5,295.3L942.4,292.6L943.5,286.7L943.6,281.6L946.0,276.8L947.9,281.4L949.1,285.4ZM577.8,115.2L575.5,118.7L568.5,119.6L560.4,118.9L556.3,117.3L558.9,116.7L565.9,117.0L567.9,113.1L575.0,113.5L577.8,115.2L577.8,115.2ZM660.0,138.2L663.4,141.0L660.0,138.2L660.0,138.2ZM667.0,134.1L672.1,134.0L673.4,137.0L671.4,142.1L669.0,138.6L663.0,138.5L661.6,135.3L662.8,134.4L664.1,132.4L667.0,134.1ZM614.1,259.9L615.8,254.0L618.2,256.7L614.1,259.9L614.1,259.9ZM537.7,106.3L546.1,107.8L542.1,110.0L535.8,107.8L537.7,106.3ZM535.9,230.3L532.3,221.8L530.6,217.3L534.3,214.7L538.5,216.3L537.4,221.5L535.9,230.3L535.9,230.3ZM519.7,221.0L514.0,220.5L512.8,216.2L516.2,210.5L521.6,208.3L527.2,206.5L530.9,210.8L533.7,215.5L528.1,217.2L519.4,217.4L519.7,221.0ZM799.8,186.9L798.1,189.2L793.5,184.8L791.1,187.4L787.7,182.5L788.9,178.1L791.5,176.1L799.0,178.8L797.0,184.3L799.8,186.9ZM594.5,125.9L603.0,127.4L611.8,127.3L607.6,131.6L599.8,133.1L593.6,131.1L595.4,128.7L594.5,125.9ZM300.6,182.2L298.6,178.2L300.6,182.2ZM299.7,174.4L299.6,173.7L299.7,174.4ZM302.1,174.4L299.8,173.5L302.1,174.4ZM583.7,124.1L585.1,127.7L582.4,130.2L576.3,126.4L575.9,123.7L582.4,123.5L583.7,124.1ZM596.9,99.2L606.0,95.8L613.7,93.7L618.9,96.0L621.1,99.6L620.4,101.3L618.7,104.4L613.8,106.2L608.5,105.6L598.4,105.6L597.8,102.6L596.9,99.2ZM266.5,198.5L268.4,196.7L269.5,197.8L269.2,200.7L267.1,203.8L266.5,198.5ZM343.7,308.1L333.6,307.5L326.3,303.5L323.9,295.8L324.6,288.6L326.6,282.0L328.4,277.0L336.0,276.4L342.6,282.2L348.8,284.6L351.3,289.0L356.7,293.9L358.8,299.6L357.3,302.1L345.4,303.9L343.7,308.1ZM359.0,330.6L370.6,321.5L368.3,316.7L366.6,313.5L364.3,309.0L358.2,304.5L358.8,299.6L356.7,293.9L351.3,289.0L348.8,284.6L342.6,282.2L336.0,276.4L328.4,277.0L322.4,278.1L316.3,275.1L312.2,270.7L313.5,265.7L317.5,260.1L324.3,251.8L322.6,246.0L323.2,244.5L330.7,242.8L335.7,245.3L340.0,242.2L339.1,238.9L340.6,236.4L349.2,235.0L352.1,233.7L352.5,237.6L354.8,243.9L358.9,242.9L363.7,242.5L365.0,240.8L370.2,241.0L373.8,240.6L378.2,237.5L379.3,246.9L387.7,249.1L397.2,254.9L415.1,257.7L424.6,262.5L423.5,274.0L414.6,283.4L412.8,296.6L407.9,307.8L397.0,311.7L385.7,318.7L384.6,326.4L374.7,336.2L371.9,337.5L363.8,332.4L359.0,330.6ZM863.0,235.1L866.4,235.6L863.0,235.1ZM797.0,171.1L793.1,173.6L790.5,170.4L797.0,171.1L797.0,171.1ZM603.2,298.5L609.3,303.9L614.3,308.3L605.7,315.2L601.4,318.2L595.0,317.6L589.3,321.3L586.4,315.6L591.5,297.6L599.9,296.7L603.2,298.5ZM572.8,227.1L577.0,226.9L583.2,222.8L591.7,218.4L597.1,219.8L597.8,223.7L603.7,228.3L608.3,233.1L602.2,233.3L596.3,234.8L591.5,235.9L583.5,234.5L578.3,237.2L574.5,239.2L570.5,234.5L571.3,229.9L572.8,227.1ZM341.3,119.5L343.6,121.1L341.3,119.5L341.3,119.5ZM346.7,112.5L339.8,110.1L346.7,112.5ZM165.7,114.1L155.9,111.3L151.5,107.9L160.1,110.1L165.7,114.1ZM363.3,108.1L364.3,111.1L370.2,114.1L372.3,119.2L368.9,116.2L363.0,116.5L355.5,114.8L361.6,106.5L363.3,108.1L363.3,108.1ZM138.7,98.9L141.5,98.7L140.3,102.7L137.3,98.5L138.7,98.9ZM295.5,76.6L292.4,76.8L295.5,76.6ZM287.8,75.0L283.8,74.5L287.8,75.0ZM278.2,66.9L285.2,69.4L293.0,72.3L281.3,72.7L274.7,71.4L278.2,66.9ZM305.5,62.8L305.4,59.7L305.5,62.8L305.5,62.8ZM247.4,57.5L235.3,56.6L244.8,55.9L247.4,57.5ZM262.4,56.4L268.9,60.8L277.1,55.3L289.8,58.7L283.5,64.9L272.7,68.2L261.9,72.6L251.6,80.0L255.9,88.4L269.7,92.2L283.5,95.6L289.2,104.1L295.9,98.6L303.5,92.0L301.1,82.9L306.0,76.2L317.7,78.3L324.8,85.4L336.6,82.9L347.9,90.8L357.9,96.4L364.4,101.0L355.6,107.1L336.3,109.2L322.8,116.2L332.8,112.4L337.9,118.3L350.5,118.2L342.5,124.7L333.9,125.2L329.1,121.8L324.9,117.0L319.5,122.9L308.4,123.7L302.7,127.5L296.2,128.5L289.6,131.4L284.1,132.1L287.1,127.7L283.2,121.0L281.2,119.6L279.3,119.2L271.5,115.7L261.6,114.8L251.3,113.7L248.9,112.8L214.0,112.8L184.7,112.8L161.6,110.0L153.0,103.6L145.1,96.8L138.7,88.8L130.6,83.1L120.2,82.5L114.4,55.8L130.2,56.9L147.3,54.5L154.2,54.0L167.0,56.2L183.0,57.7L189.8,60.8L208.6,62.2L214.3,58.6L225.2,60.2L238.9,59.4L247.9,60.3L245.0,54.8L255.6,51.4L262.4,56.4ZM193.1,46.4L205.6,46.9L210.0,46.5L220.7,50.3L231.5,56.1L222.2,58.0L200.8,58.8L187.4,57.3L194.4,54.5L182.1,53.5L177.8,50.7L193.1,46.4L193.1,46.4ZM221.5,45.6L219.2,45.0L221.5,45.6ZM304.1,46.5L294.8,47.5L292.3,44.7L304.1,46.5ZM274.1,46.3L291.6,47.5L306.2,48.8L319.1,52.5L326.2,58.5L346.6,63.6L332.3,64.9L335.2,69.7L333.6,74.4L333.9,77.2L317.1,72.4L300.1,70.9L311.1,67.5L314.1,61.3L304.4,57.3L294.8,55.4L267.9,53.9L263.4,48.9L274.1,46.3L274.1,46.3ZM233.6,44.4L240.4,46.8L236.7,51.3L233.4,47.6L233.6,44.4ZM254.6,47.4L246.3,45.5L262.5,44.4L254.6,47.4ZM174.7,51.2L159.9,48.7L171.5,42.8L189.2,45.4L174.7,51.2L174.7,51.2ZM253.4,41.3L245.6,40.2L253.4,41.3ZM239.1,36.5L235.2,41.5L227.1,37.6L239.1,36.5L239.1,36.5ZM210.6,37.9L217.9,39.9L194.4,42.9L182.7,40.6L202.9,39.7L209.6,36.6L210.6,37.9ZM250.3,35.5L261.2,38.3L274.6,39.9L293.2,40.3L283.9,42.4L256.9,41.7L246.5,37.3L250.3,35.5ZM187.2,34.0L176.3,38.4L172.6,36.1L187.2,34.0ZM252.7,34.3L251.0,33.5L252.7,34.3ZM204.8,33.8L201.6,32.6L204.8,33.8ZM206.3,31.3L200.9,30.7L206.3,31.3ZM246.9,32.8L238.7,30.6L246.9,32.8L246.9,32.8ZM234.5,32.1L219.5,32.0L224.3,29.8L234.5,32.1ZM272.7,28.4L261.6,32.4L254.8,29.2L246.4,25.8L256.9,24.0L272.7,28.4L272.7,28.4ZM327.1,19.0L346.4,21.0L335.9,23.4L313.2,28.5L304.4,30.2L298.1,34.4L299.5,36.4L271.0,37.3L269.1,33.3L270.0,32.0L274.2,28.2L287.9,26.2L263.4,24.0L267.1,21.7L284.0,21.1L304.3,18.8L327.1,19.0L327.1,19.0ZM556.1,116.8L558.6,118.5L554.3,120.9L549.3,121.6L545.7,119.0L549.9,116.5L556.1,116.8ZM326.7,392.3L330.6,399.6L322.8,399.3L309.0,392.8L320.9,394.9L326.7,392.3ZM327.9,306.6L330.5,313.6L327.7,321.5L322.9,330.9L323.2,341.5L319.4,350.8L317.0,359.8L318.4,367.9L317.8,371.2L315.8,380.2L313.9,387.0L324.1,390.9L320.2,393.0L311.8,392.8L308.1,387.9L310.6,376.6L313.2,369.8L310.0,366.4L312.4,352.8L317.2,340.8L318.3,326.9L322.4,306.3L323.9,295.8L326.3,303.5L327.9,306.6ZM851.7,196.1L848.1,193.0L852.3,194.5L851.7,196.1ZM902.5,110.7L916.7,116.1L921.4,117.7L912.3,123.8L911.2,130.9L904.1,133.5L894.9,135.9L883.1,140.5L884.8,134.9L874.3,139.7L876.8,144.5L886.9,144.5L879.0,149.6L883.6,158.2L884.4,164.6L883.3,170.1L872.0,182.5L861.8,185.5L852.0,191.6L846.3,187.8L841.1,184.8L831.6,185.1L826.6,189.3L822.6,188.2L818.1,183.9L817.4,176.2L815.2,169.6L809.9,166.5L799.3,170.8L792.0,169.7L786.5,170.8L775.1,168.2L767.1,163.8L758.1,157.8L759.5,153.1L748.5,145.4L745.8,141.3L744.5,137.8L753.6,134.6L763.4,131.0L768.4,122.9L779.4,117.0L785.4,111.9L794.8,118.6L802.2,123.8L810.6,130.0L826.7,130.6L839.3,131.6L854.0,128.1L856.2,123.5L868.2,121.8L879.0,119.1L872.1,116.3L868.8,112.4L877.9,108.4L880.5,102.4L894.9,101.3L901.4,108.0L902.5,110.7ZM519.6,233.8L510.9,233.8L505.6,233.2L503.6,230.5L503.2,226.4L503.9,224.2L503.9,219.6L507.9,219.6L510.3,219.7L514.0,220.5L519.7,221.0L519.8,232.7L519.6,233.8ZM566.4,241.3L561.1,241.3L554.2,236.8L553.7,232.4L558.8,228.1L563.4,226.1L566.6,221.0L570.4,214.8L570.5,212.1L573.4,220.0L568.9,221.2L573.3,226.3L570.4,232.5L572.1,236.9L575.0,241.3L566.4,241.3L566.4,241.3ZM618.4,237.8L617.4,243.1L614.8,249.1L613.4,253.8L614.6,262.4L618.2,270.4L611.5,272.7L612.0,280.4L612.9,283.9L607.7,279.4L600.7,278.4L596.8,277.4L593.1,274.7L591.8,269.3L586.9,266.6L583.8,269.5L578.1,268.3L567.2,263.6L563.7,263.4L566.1,260.6L569.7,260.7L575.0,257.2L579.4,249.5L580.1,245.1L582.1,237.9L587.5,234.6L594.6,234.8L600.8,234.0L605.4,233.3L611.4,235.7L615.9,236.0L618.4,237.8ZM566.1,260.6L560.5,258.4L564.7,254.1L569.9,253.0L569.9,244.2L566.4,241.3L575.0,241.3L582.1,237.9L580.1,245.1L579.4,249.5L575.0,257.2L569.7,260.7L566.1,260.6L566.1,260.6ZM306.9,247.9L300.9,246.4L296.3,242.8L299.4,240.1L301.2,234.7L299.5,227.6L300.7,224.1L306.0,221.5L310.1,217.0L316.1,214.6L318.8,215.1L314.1,218.8L314.9,223.8L315.5,227.1L322.4,228.4L329.4,230.3L329.1,235.1L329.1,239.7L331.3,244.4L323.2,242.8L324.3,245.6L324.4,250.6L320.6,257.8L317.5,253.5L310.6,250.3L306.9,247.9ZM284.6,224.9L282.7,222.6L279.5,220.3L277.7,220.5L276.7,217.9L279.0,217.4L281.9,218.0L285.9,221.2L284.9,223.3L284.6,224.9ZM286.7,183.7L295.4,185.9L303.5,189.2L308.2,190.6L306.1,192.8L300.7,190.6L295.4,188.2L287.0,185.9L281.9,186.6L280.3,186.4L286.0,184.0L286.7,183.7ZM624.0,150.9L629.4,149.4L626.8,151.2L625.9,150.8L624.0,150.9ZM627.7,151.1L622.6,151.0L625.9,150.8L626.8,151.2L627.7,151.1ZM577.8,113.9L571.7,112.8L564.7,111.2L567.1,108.0L572.0,107.0L577.0,109.4L582.0,110.0L581.3,112.0L579.5,113.3L577.8,113.9ZM557.1,96.3L563.1,98.5L570.1,101.1L570.8,105.2L569.2,107.5L564.4,110.1L566.8,114.4L565.0,116.4L558.5,117.4L552.4,116.6L547.5,112.2L546.1,107.8L548.8,101.4L551.8,100.3L555.2,96.7L557.1,96.3ZM654.4,212.6L654.6,216.0L650.5,217.1L652.2,213.0L654.4,212.6ZM565.2,94.6L564.3,93.2L565.2,94.6ZM560.0,92.2L557.1,96.3L551.7,92.0L556.7,89.5L558.4,91.8L560.0,92.2ZM317.6,193.3L322.8,193.5L326.2,195.3L323.8,197.0L320.7,196.8L317.7,197.9L317.9,194.8L317.6,193.3ZM563.2,183.0L537.3,195.1L533.3,190.8L502.6,171.6L510.2,165.7L517.3,160.5L524.7,157.7L521.6,150.8L532.3,146.8L546.4,145.4L552.1,147.3L550.3,155.8L555.8,164.2L556.6,171.4L557.1,177.7L561.9,181.2L563.2,183.0ZM292.4,256.9L290.5,253.7L292.2,248.3L296.7,243.7L303.4,246.8L307.3,250.0L297.9,258.2L293.2,259.5L292.4,256.9L292.4,256.9ZM630.4,166.4L627.5,171.5L622.8,165.7L629.1,177.1L632.2,184.0L613.1,187.0L600.5,164.9L605.7,160.6L615.1,161.7L621.8,162.4L628.5,161.6L630.4,166.4ZM652.2,213.0L648.0,208.7L641.0,207.6L634.5,206.7L639.2,199.6L644.8,205.1L652.9,211.7L652.2,213.0ZM501.5,132.3L508.2,127.7L522.4,128.1L533.4,131.1L530.4,134.7L528.3,141.0L521.7,146.6L512.2,148.6L506.1,145.5L506.4,142.0L507.4,137.0L508.4,132.3L503.8,131.2L501.5,132.3ZM599.3,88.6L596.5,84.7L610.1,83.9L608.0,89.4L599.3,88.6L599.3,88.6ZM639.2,206.4L645.4,207.6L651.2,212.1L650.4,216.3L653.5,217.5L656.1,222.2L656.1,233.9L648.8,236.7L642.1,237.9L636.1,235.3L631.5,232.4L626.5,226.3L627.7,223.6L630.2,216.4L634.9,207.8L639.2,206.4ZM611.9,57.6L616.6,66.5L620.4,74.6L605.0,81.3L590.5,80.5L593.8,72.0L598.1,66.0L588.6,57.5L600.6,58.7L613.1,55.6L611.9,57.6ZM1051.2,295.2L1048.3,297.5L1051.2,295.2L1051.2,295.2ZM1054.1,293.7L1054.3,292.5L1054.1,293.7ZM0.2,292.9L0.2,292.9L0.2,292.9ZM348.5,390.1L358.6,389.3L349.9,391.3L348.5,390.1ZM373.8,240.6L370.2,241.0L369.1,238.7L369.7,231.7L376.5,236.1L373.8,240.6ZM556.0,131.6L553.7,130.3L556.0,131.6ZM538.5,109.0L545.3,111.5L550.3,114.6L547.9,117.5L548.1,121.0L548.6,125.8L541.4,128.2L530.1,129.8L523.9,126.4L514.8,115.6L522.3,110.6L535.4,106.8L538.5,109.0ZM560.5,258.4L553.9,249.6L556.8,244.6L564.3,241.5L567.0,243.9L570.0,249.0L566.5,254.2L561.7,255.1L560.5,258.4ZM511.4,97.5L506.4,97.4L511.4,97.5ZM519.2,86.3L521.5,91.1L524.7,97.3L532.9,102.5L529.6,107.9L517.4,109.4L515.4,106.7L512.5,104.5L518.9,100.6L517.4,97.3L513.2,94.1L511.0,88.5L519.2,86.3ZM649.9,133.3L646.3,128.9L652.4,128.6L661.4,130.6L664.8,134.3L659.9,134.1L649.9,133.3ZM531.1,231.2L519.6,233.8L520.5,224.9L524.5,217.2L527.9,218.1L530.1,224.6L531.1,231.2L531.1,231.2ZM503.2,226.4L500.4,226.8L498.0,224.4L496.8,222.0L492.4,220.4L489.1,223.0L485.2,219.4L484.9,215.8L487.7,215.0L489.2,212.9L493.8,213.4L495.6,213.9L499.0,214.3L501.9,214.3L502.7,217.8L504.4,219.4L505.0,223.9L503.7,226.4L503.2,226.4ZM478.6,211.3L483.8,209.3L487.4,210.4L482.5,211.0L478.6,211.3ZM483.6,217.1L480.2,214.6L481.6,213.1L487.4,214.1L485.8,215.8L483.6,217.1ZM555.8,244.7L561.1,244.6L555.8,244.7ZM597.5,149.3L603.5,150.8L600.6,151.0L597.5,149.3ZM606.0,133.2L601.1,134.9L596.5,137.6L596.5,139.7L598.5,143.9L595.9,147.3L590.0,142.1L588.5,137.2L591.6,134.9L595.3,133.8L604.6,133.8L606.0,133.2ZM390.8,20.3L425.1,17.5L450.2,21.2L455.1,22.6L467.5,23.3L480.2,25.9L472.6,29.1L469.2,35.9L467.4,40.8L467.1,45.5L462.6,49.0L463.1,51.0L453.1,51.1L462.4,54.6L434.8,60.2L419.3,66.2L408.7,71.1L402.3,79.5L386.4,80.1L375.1,70.7L369.7,62.7L378.8,55.2L367.6,56.1L377.3,53.4L364.2,50.5L359.9,42.0L342.1,38.0L318.6,35.7L313.0,32.9L336.4,28.2L345.4,23.9L369.2,21.5L391.3,22.0L390.8,20.3ZM263.7,209.7L257.5,207.5L258.9,203.3L261.9,201.6L261.1,198.5L266.3,203.8L269.2,204.2L266.5,207.1L264.8,208.6L263.7,209.7ZM352.7,224.5L357.6,228.8L358.1,234.3L360.0,238.3L359.8,242.1L356.3,244.0L352.1,239.9L351.7,234.9L347.9,231.1L351.1,228.1L352.7,224.5ZM271.9,211.8L270.3,209.3L267.4,208.6L266.3,206.6L269.5,204.4L271.7,203.9L275.7,203.5L278.7,203.5L282.3,205.1L282.7,206.6L279.7,207.2L278.2,207.5L276.3,209.5L273.5,209.7L271.9,211.8L271.9,211.8ZM583.2,121.3L582.4,123.5L575.9,123.7L576.3,126.4L582.4,130.2L575.0,127.9L571.7,123.5L568.1,122.4L571.8,122.5L574.3,120.3L582.1,121.7L583.2,121.3ZM313.3,192.7L317.7,195.8L315.7,197.4L309.6,197.1L315.8,196.2L313.3,192.7L313.3,192.7ZM575.5,118.7L577.8,115.2L583.1,115.3L587.4,114.6L592.8,114.3L591.4,118.3L583.2,121.3L576.6,119.6L575.5,118.7ZM882.1,275.7L881.2,274.1L882.1,275.7ZM893.0,275.4L891.7,273.0L893.0,275.4L893.0,275.4ZM873.8,269.8L874.0,272.0L873.1,270.7L873.8,269.8ZM888.5,269.8L879.8,270.7L888.5,269.8L888.5,269.8ZM846.6,266.1L859.4,268.4L860.8,270.5L849.0,268.8L839.8,266.5L845.0,265.0L846.6,266.1ZM923.2,264.6L922.5,262.5L923.2,264.6ZM901.3,257.0L900.5,256.1L901.3,257.0ZM910.7,256.0L905.2,256.9L910.7,256.0L910.7,256.0ZM921.5,250.7L931.2,252.2L941.6,254.7L936.1,269.8L934.8,267.6L924.5,259.8L917.4,257.8L920.4,254.3L912.1,251.4L921.0,249.6L921.5,250.7ZM895.4,243.6L883.1,246.5L884.3,250.1L887.0,251.7L889.3,260.4L888.0,259.8L882.6,257.4L881.3,262.7L878.5,257.1L878.0,251.2L884.9,244.7L895.4,243.6L895.4,243.6ZM905.5,244.4L904.6,249.6L902.3,242.5L905.5,244.4L905.5,244.4ZM873.8,242.5L872.7,249.7L868.3,257.6L860.2,256.1L851.3,255.6L847.6,246.4L852.2,245.4L859.1,243.4L866.9,238.8L872.1,238.6L873.8,242.5ZM838.4,263.6L827.7,257.4L819.2,247.0L813.1,238.4L809.4,232.5L820.4,238.8L830.4,246.0L834.2,250.5L839.3,255.9L838.4,263.6ZM756.3,149.9L760.2,158.2L765.9,164.5L768.5,170.7L780.3,174.3L786.3,172.0L788.6,173.0L798.0,173.7L802.0,168.7L811.3,168.2L812.7,171.3L807.1,176.0L801.8,181.3L799.8,186.9L795.4,182.9L797.3,178.3L790.1,176.0L787.0,179.1L788.7,184.6L783.1,188.4L774.2,197.2L767.6,202.6L763.4,209.5L760.7,219.2L756.6,224.8L750.2,216.4L746.4,207.3L741.6,191.3L730.9,186.8L729.9,180.5L733.8,174.6L741.6,167.9L748.8,158.8L745.8,151.9L756.3,149.9ZM509.8,99.4L498.7,105.0L505.8,95.9L509.8,99.4L509.8,99.4ZM686.2,145.2L694.1,142.7L705.1,147.0L705.6,154.9L706.8,160.7L708.0,166.9L713.5,172.7L702.9,177.7L693.7,172.9L682.0,171.7L673.4,165.0L668.8,162.3L663.3,156.7L663.2,149.4L658.3,142.2L661.3,140.6L669.0,138.6L671.4,142.1L681.3,146.6L686.2,145.2ZM661.2,148.6L661.2,154.1L667.9,162.3L668.7,165.1L650.9,161.7L648.3,152.8L652.2,145.1L659.3,145.3L661.2,148.6ZM485.4,64.7L475.8,72.4L464.1,70.4L456.6,67.1L472.1,65.2L485.4,64.7ZM632.8,157.5L631.3,160.2L631.9,162.0L629.2,160.6L631.0,156.5L633.1,157.1L632.8,157.5ZM573.5,142.4L570.1,145.8L568.3,142.9L573.5,142.4ZM555.0,134.2L553.8,140.5L553.5,135.0L555.0,134.2ZM564.3,118.9L566.5,121.7L564.9,126.2L574.7,132.1L579.4,135.1L580.0,136.7L578.0,140.5L574.0,142.4L573.2,137.4L568.0,134.2L558.8,129.4L552.7,125.9L548.6,125.8L548.1,121.0L552.9,121.0L558.4,119.7L563.6,117.9L564.3,118.9ZM300.5,196.7L302.4,198.4L298.6,196.8L300.5,196.7ZM632.3,158.4L643.0,159.1L638.5,164.1L633.8,167.2L631.8,160.9L632.3,158.4ZM922.9,153.6L919.0,156.0L917.9,153.8L922.9,153.6ZM941.5,145.4L935.7,152.2L924.2,152.4L915.2,156.3L910.6,158.6L911.9,153.4L926.0,149.8L937.0,142.4L942.7,133.7L941.5,145.4L941.5,145.4ZM950.1,126.0L950.6,129.3L938.5,133.2L943.6,124.4L950.1,126.0ZM736.2,131.3L728.2,135.7L721.7,132.0L709.9,127.9L699.6,122.1L688.6,131.9L681.8,131.9L677.3,126.4L678.5,123.1L683.6,118.7L672.0,119.9L666.8,116.3L667.5,108.7L681.5,105.3L699.2,107.1L708.7,106.5L709.0,101.8L720.6,97.3L736.8,98.6L746.2,100.2L762.8,107.6L774.2,107.6L782.7,110.5L779.4,117.0L768.4,122.9L763.4,131.0L750.9,129.3L743.6,130.6L736.2,131.3ZM648.2,249.9L646.1,254.6L643.0,260.4L627.5,250.1L630.8,242.3L629.6,234.2L634.1,235.3L641.4,237.6L647.6,235.8L648.2,249.9L648.2,249.9ZM736.2,131.3L744.0,129.0L755.8,129.4L763.0,131.7L752.5,136.3L744.9,138.4L731.8,138.8L738.5,137.1L734.6,133.3L736.2,131.3ZM831.6,218.3L830.1,208.4L840.4,207.4L838.4,215.7L831.6,218.3L831.6,218.3ZM904.5,141.3L906.7,151.0L898.7,151.4L898.1,143.7L902.8,142.2L904.5,141.3ZM588.9,131.9L587.5,131.1L588.5,128.7L590.4,129.5L591.5,130.8L588.9,131.9L588.9,131.9ZM668.7,165.1L667.9,169.1L668.7,165.1L668.7,165.1ZM836.6,208.2L835.2,199.6L828.4,198.2L825.1,194.0L822.3,190.3L826.2,186.1L834.3,190.4L836.3,196.2L843.5,205.7L836.6,208.2L836.6,208.2ZM633.1,156.0L632.1,154.3L635.4,153.4L633.1,156.0ZM505.4,235.5L496.4,230.6L496.6,225.7L500.6,225.7L502.4,226.3L502.8,229.7L505.9,232.9L505.4,235.5ZM571.6,184.6L561.9,181.2L557.1,177.7L556.6,171.4L555.8,164.2L559.2,160.2L565.1,157.3L574.1,161.2L585.4,163.6L589.2,157.6L597.3,159.0L600.8,162.0L601.3,176.9L597.9,193.7L571.6,184.6ZM767.9,226.8L762.3,228.9L766.5,223.9L767.9,226.8ZM613.0,327.1L611.0,330.6L608.8,327.9L613.0,327.1ZM594.7,98.1L590.4,95.7L600.9,92.5L606.0,95.8L596.9,99.2L594.7,98.1ZM545.7,109.6L544.6,111.3L545.7,109.6ZM589.8,93.4L596.4,90.7L603.1,88.4L609.7,91.4L602.9,93.2L593.1,92.6L589.8,93.4ZM512.8,149.2L521.6,150.8L524.7,157.7L517.3,160.5L510.2,165.7L502.1,171.4L499.4,173.6L493.6,175.7L486.3,186.1L478.1,188.6L480.1,184.2L484.5,178.5L489.5,171.5L496.0,168.2L500.3,159.4L507.7,153.7L512.8,149.2ZM606.1,114.9L612.1,115.2L614.7,118.4L615.3,120.0L612.9,120.3L610.3,121.2L607.9,116.0L606.1,114.9ZM673.3,281.8L676.1,289.4L673.7,290.7L673.0,296.9L667.5,312.9L659.5,317.2L655.1,310.1L656.8,304.8L657.2,297.9L659.8,292.0L665.5,289.3L669.7,285.4L673.3,281.8L673.3,281.8ZM243.1,176.4L240.9,185.8L244.9,192.8L251.0,197.6L259.9,195.6L263.2,189.8L272.6,188.3L271.0,193.5L269.6,196.6L266.8,198.0L261.1,198.5L261.9,201.6L258.9,203.3L257.5,207.5L248.6,203.1L240.5,203.2L229.8,199.0L223.2,195.9L218.8,191.0L218.2,187.4L211.4,180.0L207.4,174.8L201.9,170.7L197.1,164.9L193.0,160.8L191.6,164.6L195.7,168.4L198.1,171.8L202.4,177.9L206.0,182.0L205.2,184.7L198.9,179.5L195.2,173.9L190.5,171.3L193.1,168.9L187.0,162.7L191.5,157.5L208.2,161.3L216.6,161.2L221.6,166.2L229.8,165.6L236.1,171.8L241.9,176.4L243.1,176.4ZM588.4,132.4L591.3,131.3L595.3,133.8L591.6,134.9L588.4,132.4L588.4,132.4ZM492.3,207.3L496.8,205.9L511.8,204.9L509.1,178.9L534.0,192.1L540.5,194.8L536.1,205.1L527.2,206.5L521.6,208.3L516.2,210.5L512.8,216.2L510.3,219.7L507.9,219.6L503.5,218.6L502.8,216.9L501.2,213.7L498.2,214.9L494.9,214.3L494.1,211.4L492.3,207.3ZM820.0,192.0L813.6,196.8L817.0,205.4L819.0,211.0L817.1,220.2L817.0,211.4L813.0,200.9L804.3,203.4L802.7,193.3L799.8,188.9L801.6,184.1L805.5,178.3L812.9,173.0L815.2,169.6L817.4,176.2L818.1,183.9L822.6,188.2L821.7,191.4L820.0,192.0ZM586.1,130.6L584.2,132.1L582.9,128.7L585.6,128.7L586.9,130.4L586.1,130.6ZM785.4,111.9L801.1,108.6L813.3,110.8L821.3,105.5L832.1,109.8L844.4,110.6L855.3,111.7L866.8,110.5L867.5,116.3L876.7,116.2L872.4,119.1L860.8,124.3L855.6,126.3L848.4,130.6L834.6,132.3L819.9,130.6L807.6,125.8L794.8,123.0L788.6,115.3L785.4,111.9ZM629.4,279.2L637.9,279.3L646.3,275.9L647.1,286.6L643.7,293.5L633.3,299.3L631.2,305.9L632.2,310.9L630.8,314.8L623.8,319.4L621.8,319.8L620.9,312.6L623.8,303.3L624.4,296.9L620.8,291.7L616.5,288.2L629.1,287.7L630.8,293.7L631.5,285.7L629.4,279.2L629.4,279.2ZM492.3,207.3L485.2,201.9L479.7,203.1L480.3,195.0L477.9,189.8L490.2,183.5L502.5,172.2L511.9,202.6L499.5,205.5L493.8,205.2L492.3,207.3ZM629.4,279.2L631.5,285.7L630.8,293.7L629.1,287.7L623.9,285.2L625.7,277.2L627.0,273.4L629.4,279.2ZM824.5,230.4L828.3,230.6L831.1,237.3L833.8,243.0L825.4,239.9L821.9,232.9L824.5,230.4L824.5,230.4ZM875.9,235.2L866.9,238.8L859.1,243.4L852.2,245.4L854.1,242.4L861.6,236.8L866.4,235.6L870.4,228.5L875.2,231.8L875.9,235.2L875.9,235.2ZM575.9,326.1L571.2,317.3L568.7,307.2L562.6,297.2L567.5,294.2L583.6,296.4L600.4,295.2L599.0,296.7L589.3,297.7L586.4,325.8L579.0,326.7L575.9,326.1ZM1014.3,305.5L1015.5,308.4L1009.2,302.8L1014.3,305.5L1014.3,305.5ZM534.3,214.7L529.3,209.0L532.1,205.4L540.5,201.2L563.2,183.0L572.3,188.9L574.0,192.6L567.7,208.0L570.5,212.1L567.1,210.2L560.2,210.7L554.4,212.2L546.9,210.4L539.6,211.9L535.3,213.9L534.3,214.7ZM552.9,234.4L545.3,235.8L538.5,230.3L536.5,222.4L539.1,218.0L539.6,211.9L546.9,210.4L554.4,212.2L560.2,210.7L567.1,210.2L570.4,214.8L566.6,221.0L563.4,226.1L558.8,228.1L553.7,232.4L552.9,234.4ZM276.6,217.0L272.3,213.2L271.9,211.8L273.5,209.7L276.3,209.5L278.2,207.5L279.7,207.2L282.7,206.6L283.7,207.1L282.9,211.4L282.4,214.8L282.6,217.4L279.6,217.0L276.6,217.0ZM545.8,100.3L547.3,104.9L542.6,105.9L541.8,101.5L545.8,100.3ZM610.6,51.7L614.2,57.3L604.8,55.5L593.6,58.2L586.3,59.4L575.3,62.4L567.8,71.4L565.1,78.9L558.4,84.0L543.6,83.4L558.9,70.2L584.3,55.5L605.4,52.3L610.6,51.7ZM600.5,33.4L589.0,32.3L600.5,33.4ZM581.5,28.3L579.6,34.0L571.0,33.7L566.6,27.5L577.8,27.4L581.5,28.3ZM602.6,26.4L586.9,28.7L588.0,25.9L602.6,26.4ZM786.5,170.8L783.9,174.9L772.4,172.2L764.1,165.7L772.5,166.5L779.7,169.9L786.5,170.8ZM1035.5,360.0L1039.1,362.4L1035.7,368.1L1028.5,373.7L1020.1,374.8L1021.7,368.8L1030.0,364.4L1034.9,358.9L1035.5,360.0ZM1040.2,346.9L1044.1,350.8L1051.7,351.2L1047.0,356.0L1044.3,361.0L1042.0,358.8L1040.1,354.2L1039.3,348.0L1035.5,342.2L1040.2,346.9ZM700.7,189.4L697.2,193.2L694.1,196.4L690.1,199.0L685.1,201.6L689.3,192.5L690.9,182.8L691.9,179.0L698.5,182.2L703.4,185.5L700.7,189.4L700.7,189.4ZM693.4,176.3L693.7,175.1L693.4,176.3ZM748.5,145.4L753.5,152.2L745.4,155.5L746.3,162.3L735.1,170.5L735.8,178.2L725.8,181.7L712.5,178.1L713.5,172.7L708.0,166.9L716.2,166.8L722.7,163.0L729.1,160.3L732.4,156.5L736.7,153.0L737.0,148.3L746.8,145.7L748.5,145.4ZM299.5,227.6L297.9,224.4L294.0,223.9L293.3,226.7L290.2,226.0L287.1,225.0L284.6,224.9L285.4,223.0L286.9,222.2L289.1,223.3L294.6,221.1L299.0,222.1L301.4,225.7L299.5,227.6ZM323.9,295.8L318.4,295.2L303.8,285.5L296.2,270.6L289.7,264.4L292.4,256.9L293.2,259.5L297.9,258.2L307.3,250.0L310.6,250.3L317.5,253.5L320.6,257.8L319.9,259.6L313.2,264.2L311.0,268.2L315.1,273.7L321.1,277.8L326.0,283.0L325.1,289.6L323.9,295.8ZM898.7,224.4L897.1,227.4L892.4,230.6L889.7,227.1L886.8,225.4L893.5,224.1L898.3,222.0L898.7,224.4ZM891.7,219.2L887.0,220.8L890.3,217.4L891.7,219.2ZM875.6,221.9L877.0,219.0L875.6,221.9L875.6,221.9ZM885.5,214.8L887.7,218.0L885.5,214.8L885.5,214.8ZM896.1,214.1L895.5,219.0L892.6,215.9L895.3,213.0L896.1,214.1ZM884.5,211.6L883.5,210.6L884.5,211.6ZM883.9,196.6L886.4,198.5L884.4,205.9L891.6,209.6L889.7,211.7L883.3,210.0L882.0,206.9L879.7,202.5L883.9,196.6L883.9,196.6ZM985.2,266.3L981.2,261.6L984.3,264.6L985.2,266.3ZM973.8,262.6L968.7,264.9L963.3,262.5L968.4,261.3L972.8,260.6L974.8,260.9L973.8,262.6ZM959.8,267.8L965.8,273.7L970.0,276.6L961.9,275.4L952.6,268.5L946.4,273.1L941.6,254.7L955.8,260.9L959.1,266.0L959.8,267.8ZM977.2,259.9L973.7,257.0L972.3,255.1L976.9,258.4L977.2,259.9ZM572.0,107.0L569.3,101.8L576.0,97.6L585.7,97.8L596.9,99.2L596.1,103.2L598.2,108.8L594.2,112.5L586.2,112.2L582.0,110.0L577.0,109.4L572.0,107.0L572.0,107.0ZM333.6,196.6L332.6,198.0L333.6,196.6L333.6,196.6ZM911.2,130.9L908.4,133.1L905.3,137.0L901.7,139.7L902.8,142.2L898.1,143.7L895.4,143.4L895.3,141.2L893.9,138.4L900.1,132.5L908.2,130.8L911.2,130.9ZM501.5,132.3L506.2,132.6L507.9,134.4L506.0,138.5L507.0,143.5L503.4,145.8L500.8,142.0L501.7,137.1L501.5,132.3L501.5,132.3ZM344.1,308.7L351.9,300.7L358.2,304.5L364.3,309.0L366.6,313.5L368.3,316.7L362.3,323.3L358.5,316.7L344.1,308.7L344.1,308.7ZM677.0,179.4L679.3,176.5L677.0,179.4L677.0,179.4ZM594.6,115.8L600.9,116.2L606.1,114.9L610.5,118.8L612.1,122.9L613.5,124.2L607.9,126.0L596.4,126.8L594.6,124.9L591.0,123.3L589.7,120.1L594.6,115.8ZM949.4,107.9L949.0,118.7L944.3,118.8L945.1,107.4L945.1,98.4L948.2,105.2L949.4,107.9ZM594.7,98.1L590.4,95.7L594.7,98.1L594.7,98.1ZM14.6,64.4L29.6,66.1L20.7,70.8L11.1,67.8L3.9,65.7L0.0,57.9L14.6,64.4ZM1056.0,52.7L1056.0,52.7L1056.0,52.7ZM3.8,52.5L2.9,50.7L3.8,52.5ZM949.2,46.2L941.0,44.6L949.2,46.2ZM970.1,41.0L957.3,39.9L970.1,41.0ZM953.6,39.7L929.8,40.5L953.6,39.7L953.6,39.7ZM696.8,53.0L679.4,50.9L687.7,45.0L697.7,39.6L727.9,35.9L708.6,40.5L691.2,50.8L696.8,53.0ZM841.8,35.8L860.4,37.9L851.1,42.7L859.5,44.1L876.4,45.1L895.8,45.2L904.8,49.6L920.6,51.2L938.3,50.9L969.0,50.6L996.8,53.8L1009.2,55.9L1029.1,57.7L1043.5,55.3L1056.0,68.8L1052.8,73.6L1048.3,75.6L1028.7,81.6L1014.5,82.1L1003.3,87.3L1003.6,93.2L997.4,101.2L986.8,105.3L987.8,89.7L1002.8,81.6L1005.1,78.0L980.4,83.2L971.9,83.9L945.1,85.1L930.4,99.1L942.6,101.5L938.8,114.3L925.5,126.5L916.0,128.5L911.2,129.5L914.9,122.9L922.5,116.7L912.2,116.1L901.4,108.0L894.9,101.3L880.5,102.4L877.9,108.4L866.8,110.5L855.3,111.7L844.4,110.6L832.1,109.8L821.3,105.5L813.3,110.8L801.1,108.6L785.4,111.9L777.7,109.7L768.4,107.8L752.5,98.5L743.6,98.9L730.6,95.2L708.2,99.0L706.7,103.3L703.8,107.7L691.4,108.3L670.9,108.3L666.0,112.3L670.8,118.0L667.8,122.0L670.5,132.5L664.9,132.5L658.6,130.0L648.0,128.2L638.1,124.7L638.5,119.2L640.2,116.7L644.4,113.3L639.5,110.2L631.8,107.9L628.9,105.1L622.3,104.3L620.4,101.3L621.1,99.6L618.9,96.0L613.7,93.7L608.0,89.4L610.1,83.9L619.3,76.0L614.7,68.9L611.4,59.5L622.3,55.3L648.4,62.0L627.5,63.9L630.5,70.4L635.2,69.4L644.6,67.4L658.6,63.9L663.7,59.8L664.0,64.2L685.6,58.1L690.6,59.3L707.2,57.9L718.3,57.1L727.9,56.8L723.6,52.2L740.9,47.4L741.5,53.9L737.1,65.1L745.6,62.5L744.6,57.6L747.7,49.2L748.8,51.3L761.6,48.6L769.3,44.4L783.7,40.9L801.5,38.4L823.6,37.3L839.1,34.7L841.8,35.8ZM836.2,32.2L829.7,29.5L836.2,32.2ZM678.0,26.0L667.6,27.5L665.3,25.4L674.8,25.0L678.0,26.0ZM821.2,30.6L799.5,27.1L815.1,25.4L821.2,30.6ZM617.2,250.6L615.8,254.0L613.8,253.6L617.2,250.6L617.2,250.6ZM502.2,172.9L502.5,172.2L490.2,183.5L477.9,189.8L485.1,187.4L492.7,175.9L498.1,173.6L502.2,172.9ZM653.5,202.5L650.5,198.5L644.8,191.6L640.9,182.4L637.1,178.5L632.5,172.2L630.2,167.9L635.8,165.4L636.5,160.9L650.9,161.7L667.9,169.1L673.1,172.9L675.4,177.1L677.9,180.0L680.5,184.2L689.3,192.5L667.2,200.4L661.2,199.8L655.3,199.2L653.5,202.5ZM627.6,221.5L625.4,218.0L623.8,214.4L621.4,218.5L614.9,219.8L610.0,221.7L605.7,221.2L600.7,220.5L597.8,223.7L597.1,219.8L594.0,215.4L592.6,211.9L593.4,208.1L597.9,193.7L613.1,187.0L636.4,190.2L640.7,198.0L635.8,202.7L633.2,212.9L628.5,218.3L627.6,221.5ZM627.6,221.5L624.7,226.1L629.8,229.4L625.9,237.1L618.4,237.8L612.2,235.2L607.8,232.2L601.7,226.9L599.0,223.5L603.7,218.9L607.5,221.0L613.1,221.1L618.5,220.8L622.8,215.4L625.4,214.0L627.3,220.0L627.6,221.5ZM479.0,210.1L479.0,204.5L483.6,201.9L490.4,205.4L494.1,211.4L492.2,213.2L487.8,212.9L479.1,213.4L482.5,211.0L487.4,210.4L483.8,209.3L479.0,210.1ZM1003.5,276.3L1003.0,276.2L1003.5,276.3ZM999.8,274.7L996.5,272.9L999.8,274.7ZM1002.3,273.9L1000.0,270.4L1002.3,273.9ZM997.0,270.4L992.1,267.9L997.0,270.4L997.0,270.4ZM990.1,267.7L987.2,265.6L990.1,267.7ZM494.4,228.8L489.5,225.0L491.6,220.5L496.2,220.9L497.2,224.5L495.1,228.0L494.4,228.8ZM270.5,210.7L266.2,210.5L264.8,208.6L266.8,208.1L269.7,209.1L270.5,210.7ZM671.6,221.5L656.1,222.2L653.5,217.5L657.4,218.8L667.4,216.9L671.6,216.2L671.6,221.5ZM673.9,215.7L678.0,215.2L676.3,222.2L668.0,235.9L654.5,246.7L648.2,249.9L653.5,235.8L670.2,223.2L671.6,216.2L673.9,215.7ZM589.2,122.6L593.9,124.6L593.7,126.5L593.8,130.4L591.3,131.3L591.5,130.1L589.5,128.9L587.4,129.8L585.2,128.3L584.1,125.3L583.9,122.3L588.9,121.7L589.2,122.6ZM360.4,231.1L369.7,231.7L369.1,238.7L365.0,240.8L363.7,242.5L359.0,238.3L359.9,233.5L360.4,231.1ZM583.3,111.4L587.9,111.6L593.4,113.2L588.1,114.0L584.2,115.2L579.3,115.9L578.2,113.3L581.1,112.6L583.3,111.4L583.3,111.4ZM568.5,119.6L575.5,118.7L574.0,121.5L570.8,122.0L568.2,121.0L568.5,119.6ZM593.1,66.8L580.4,74.9L580.4,85.4L571.0,92.9L562.6,89.5L565.1,78.9L567.8,71.4L575.3,62.4L586.3,59.4L597.0,60.7L593.1,66.8ZM622.1,321.0L618.0,320.1L621.4,318.6L622.1,321.0ZM641.8,155.7L633.1,157.1L634.9,152.4L634.8,148.4L640.0,146.0L648.9,145.5L649.4,149.5L641.8,155.7ZM570.5,212.1L567.7,208.0L574.0,192.6L572.3,188.9L597.9,193.7L593.4,208.1L592.6,211.9L594.0,215.4L591.7,218.4L583.2,222.8L577.0,226.9L572.8,227.1L570.7,222.8L571.7,220.0L571.7,213.9L570.5,212.1ZM533.5,230.6L529.4,227.1L529.1,219.5L530.3,218.7L532.9,222.4L533.5,230.6ZM828.9,214.0L821.6,210.6L819.1,222.1L824.3,228.6L824.7,231.8L820.4,228.7L816.5,226.1L818.5,217.4L818.7,209.5L818.1,203.0L814.9,196.3L821.7,191.4L824.4,196.9L830.1,198.1L835.4,202.3L833.9,207.9L828.9,214.0ZM736.3,136.8L734.9,138.6L745.8,141.3L744.9,144.6L738.7,146.5L737.3,142.3L733.7,144.1L727.9,145.7L725.8,139.9L731.4,135.5L736.3,136.8L736.3,136.8ZM707.6,149.5L699.4,144.3L690.8,143.1L686.1,140.4L683.2,135.1L685.6,131.7L683.3,131.7L692.2,133.9L700.0,129.9L708.5,134.0L716.2,140.5L722.2,144.7L717.3,147.6L710.5,150.5L707.6,149.5ZM894.6,272.0L900.4,270.3L894.9,273.3L894.6,272.0ZM347.1,217.9L346.8,220.0L347.1,217.9ZM555.8,164.2L550.3,155.8L552.1,147.3L557.9,146.5L559.1,148.6L558.3,154.6L561.5,158.5L557.5,162.4L555.8,164.2ZM636.3,133.8L649.9,133.3L656.1,136.8L658.3,142.2L656.9,145.0L647.3,145.5L636.7,146.8L634.0,149.0L629.8,146.3L617.8,146.6L609.1,146.7L604.8,139.0L619.4,134.5L636.3,133.8L636.3,133.8ZM607.8,135.6L605.1,134.9L610.1,132.0L609.0,134.8L607.8,135.6ZM885.2,180.4L880.3,182.7L885.2,180.4L885.2,180.4ZM627.5,250.1L643.0,260.4L643.8,267.0L644.0,272.6L640.7,278.5L635.1,279.7L627.6,274.2L620.6,271.6L614.9,265.4L615.3,259.7L618.2,255.8L618.4,252.2L627.5,250.1L627.5,250.1ZM621.5,250.3L614.8,251.2L616.3,244.6L618.3,241.1L623.9,237.1L629.5,239.1L627.4,247.2L621.5,250.3ZM621.2,104.2L627.0,103.6L630.7,106.7L637.7,108.9L645.6,111.9L641.7,116.0L635.8,119.1L632.2,122.6L627.4,125.5L623.7,122.3L620.9,119.1L613.5,122.5L612.1,121.2L613.6,120.0L615.7,119.1L613.4,115.9L606.8,114.5L601.9,115.8L595.9,115.2L593.4,113.2L596.7,109.2L598.4,105.6L608.5,105.6L613.8,106.2L618.7,104.4L621.2,104.2ZM359.0,330.6L367.9,334.1L371.4,340.4L363.1,343.4L356.8,339.0L359.0,330.6L359.0,330.6ZM71.7,195.0L70.2,193.3L70.8,191.8L73.2,192.9L71.7,195.0L71.7,195.0ZM70.2,190.7L68.3,190.0L70.2,190.7L70.2,190.7ZM68.2,189.3L68.2,189.3L68.2,189.3ZM65.6,188.9L63.8,188.3L65.6,188.9L65.6,188.9ZM60.6,187.0L59.9,186.4L60.6,187.0ZM249.9,111.7L256.3,114.3L266.1,115.4L276.8,117.6L279.8,119.8L281.9,120.7L285.9,122.8L284.8,130.8L285.4,132.9L296.4,129.6L297.1,127.5L304.0,126.2L318.3,123.7L321.8,121.2L327.8,117.3L331.6,124.3L320.8,129.0L322.4,132.6L320.8,133.4L314.2,134.1L312.9,135.8L311.0,136.3L307.4,139.6L307.8,141.9L305.9,143.2L304.1,142.8L305.1,146.0L301.0,152.6L295.7,156.3L289.0,163.0L291.8,170.4L292.2,178.2L288.3,176.4L285.6,169.0L278.3,166.0L271.2,164.2L265.7,165.3L264.6,166.9L256.7,166.2L247.6,168.5L242.4,174.1L239.8,175.8L234.3,170.2L227.4,165.7L220.9,164.7L215.6,160.2L202.3,161.3L187.8,157.8L180.7,154.7L174.9,152.8L168.5,144.2L164.7,138.1L162.7,129.9L164.0,118.6L166.8,115.4L167.7,112.8L196.5,112.8L232.8,112.8L249.9,111.7L249.9,111.7ZM79.2,90.4L77.0,88.5L79.2,90.4L79.2,90.4ZM42.3,82.7L39.7,81.4L42.3,82.7ZM24.3,72.1L33.2,73.4L27.4,73.2L24.3,72.1ZM73.1,51.8L81.3,53.3L100.6,54.7L114.4,55.8L117.3,81.7L127.7,84.0L136.8,86.9L146.7,95.5L140.1,92.5L127.2,87.4L109.8,82.3L93.2,80.6L86.2,84.2L87.0,79.7L76.2,84.3L69.5,89.6L59.8,94.7L49.7,97.1L50.2,95.3L62.5,90.7L67.3,85.5L59.5,85.4L52.9,86.2L47.5,83.1L40.7,78.4L47.7,73.6L56.4,72.1L54.6,69.4L44.1,70.3L39.0,65.8L53.7,65.7L42.9,60.4L49.4,56.7L61.5,52.5L73.1,51.8ZM723.1,144.8L714.3,139.3L705.4,134.1L697.5,131.5L692.1,123.8L707.1,125.4L721.9,129.3L727.4,134.4L734.5,131.8L736.7,134.4L736.3,136.8L731.4,135.5L725.8,139.9L724.8,144.8L723.1,144.8ZM318.8,215.1L317.9,218.8L319.6,220.4L321.8,214.9L327.8,217.6L335.4,219.4L343.0,218.1L347.3,220.3L352.7,224.5L350.4,228.6L349.8,233.2L343.8,236.5L337.9,236.3L342.0,240.9L338.5,243.8L331.8,244.1L330.6,238.4L329.3,233.1L327.8,230.6L320.7,228.0L315.4,226.5L314.5,222.5L315.0,217.7L318.8,215.1ZM844.9,188.2L840.2,198.0L848.7,210.6L840.1,221.3L834.0,218.7L843.3,213.6L842.8,203.8L832.8,194.5L830.7,190.4L831.6,185.1L841.1,184.8L844.9,188.2ZM1020.3,292.8L1020.3,292.8L1020.3,292.8ZM1018.2,288.6L1016.8,289.8L1018.2,288.6ZM632.3,158.4L630.6,160.6L632.3,158.4L632.3,158.4ZM683.8,201.7L678.1,205.8L668.6,209.0L661.8,210.9L658.5,212.5L654.9,209.6L653.6,205.5L654.8,201.7L657.3,199.6L665.1,200.0L672.1,196.3L683.8,201.7ZM620.5,328.0L616.2,333.1L605.5,339.9L600.4,341.0L591.2,341.7L584.3,342.3L581.5,340.6L581.5,334.6L575.9,326.1L580.3,326.9L586.4,315.6L589.3,321.3L595.0,317.6L601.4,318.2L605.7,315.2L614.3,308.3L619.5,308.7L621.4,318.6L618.0,320.1L622.1,321.0L622.5,326.6L620.5,328.0ZM613.0,327.1L607.2,329.7L612.6,330.2L613.0,327.1ZM624.1,272.9L625.1,279.4L625.4,285.9L612.9,291.6L607.3,296.8L601.6,296.1L596.1,295.7L598.4,283.0L598.5,278.4L600.7,278.4L607.7,279.4L612.9,283.9L612.0,280.4L611.5,272.7L618.2,270.4L624.1,272.9L624.1,272.9ZM619.5,308.7L614.3,308.3L609.3,303.9L603.2,298.5L607.3,296.8L612.9,291.6L619.4,291.1L624.4,293.5L624.1,301.7L619.5,308.7L619.5,308.7Z"/></svg>